<?xml version="1.0" encoding="UTF-8" standalone="no"?>
<!-- Created with Inkscape (http://www.inkscape.org/) -->

<svg
   xmlns:dc="http://purl.org/dc/elements/1.1/"
   xmlns:cc="http://creativecommons.org/ns#"
   xmlns:rdf="http://www.w3.org/1999/02/22-rdf-syntax-ns#"
   xmlns:svg="http://www.w3.org/2000/svg"
   xmlns="http://www.w3.org/2000/svg"
   xmlns:sodipodi="http://sodipodi.sourceforge.net/DTD/sodipodi-0.dtd"
   xmlns:inkscape="http://www.inkscape.org/namespaces/inkscape"
   width="100"
   height="100"
   id="svg2"
   version="1.1"
   inkscape:version="0.92.4 5da689c313, 2019-01-14"
   sodipodi:docname="logo.svg">
  <defs
     id="defs4" />
  <sodipodi:namedview
     id="base"
     pagecolor="#ffffff"
     bordercolor="#666666"
     borderopacity="1.0"
     inkscape:pageopacity="0"
     inkscape:pageshadow="2"
     inkscape:zoom="5.6568542"
     inkscape:cx="48.138086"
     inkscape:cy="44.404022"
     inkscape:document-units="px"
     inkscape:current-layer="layer1"
     showgrid="false"
     inkscape:window-width="1920"
     inkscape:window-height="1054"
     inkscape:window-x="1366"
     inkscape:window-y="0"
     inkscape:window-maximized="1"
     showguides="true"
     inkscape:pagecheckerboard="true"
     inkscape:snap-grids="false"
     inkscape:snap-to-guides="true">
    <inkscape:grid
       type="xygrid"
       id="grid3724" />
  </sodipodi:namedview>
  <metadata
     id="metadata7">
    <rdf:RDF>
      <cc:Work
         rdf:about="">
        <dc:format>image/svg+xml</dc:format>
        <dc:type
           rdf:resource="http://purl.org/dc/dcmitype/StillImage" />
        <dc:title />
      </cc:Work>
    </rdf:RDF>
  </metadata>
  <g
     inkscape:label="Ebene 1"
     id="layer1"
     transform="translate(0,-952.36217)"
     inkscape:groupmode="layer">
    <path
       style="font-style:normal;font-weight:normal;font-size:40px;line-height:125%;font-family:Sans;letter-spacing:0px;word-spacing:0px;fill:#b01d23;fill-opacity:1;stroke:none;stroke-width:2.45649886"
       d="m 34.074375,1033.5011 c -17.197406,0.1214 -31.1394301,-13.9415 -31.1394301,-31.1394 0,-17.19775 13.9415961,-31.13936 31.1394301,-31.13936 17.197832,0 30.749634,13.94604 31.139428,31.13936 0.390816,17.2386 24.664915,13.7332 31.824076,11.8375 1.163256,-0.308 -35.256144,19.1065 -62.963504,19.3019 z"
       id="path3820"
       inkscape:connector-curvature="0"
       sodipodi:nodetypes="ssssss"
       inkscape:label="Sprechblase"
       sodipodi:insensitive="true" />
    <g
       id="layer3"
       inkscape:label="Rad"
       transform="translate(-0.4267767,952.68539)"
       style="display:inline">
      <ellipse
         style="display:inline;fill:#ffffff;fill-opacity:1;stroke-width:1.04071307"
         id="path4533"
         cx="34.5"
         cy="49.5"
         inkscape:label="Hintergrund"
         rx="23.002602"
         ry="21.765165" />
      <g
         id="g4691"
         inkscape:label="Speichen"
         style="display:inline">
        <path
           inkscape:transform-center-y="-0.37499972"
           inkscape:transform-center-x="11.539772"
           sodipodi:nodetypes="zzzz"
           inkscape:connector-curvature="0"
           id="path4681"
           d="m 29.107956,49.047334 c 0,1.658719 -8.909091,7.18778 -10.818183,5.529062 -1.90909,-1.658719 -1.90909,-9.399406 1e-6,-11.058123 1.909091,-1.658718 10.818182,3.870342 10.818182,5.529061 z"
           style="opacity:1;fill:#b01d23;fill-opacity:1;stroke-width:0.59316891"
           inkscape:label="Loch 5" />
        <path
           inkscape:transform-center-y="-10.953717"
           inkscape:transform-center-x="6.9269403"
           sodipodi:nodetypes="zzzz"
           inkscape:connector-curvature="0"
           id="path4677"
           d="m 32.140102,44.545504 c -1.436493,0.829359 -10.679345,-4.121609 -10.197399,-6.60429 0.481948,-2.48268 7.185578,-6.353023 9.576615,-5.529061 2.391037,0.823963 2.057276,11.303992 0.620784,12.133351 z"
           style="opacity:1;fill:#b01d23;fill-opacity:1;stroke-width:0.59316891"
           inkscape:label="Loch 6" />
        <path
           style="opacity:1;fill:#b01d23;fill-opacity:1;stroke-width:0.59316891"
           d="m 31.490582,53.924164 c 1.436493,0.82936 1.770255,11.309389 -0.620783,12.133352 -2.391038,0.823961 -9.094669,-3.046382 -9.576615,-5.529062 -0.481946,-2.48268 8.760906,-7.433649 10.197398,-6.60429 z"
           id="path4675"
           inkscape:connector-curvature="0"
           sodipodi:nodetypes="zzzz"
           inkscape:transform-center-x="7.5764592"
           inkscape:transform-center-y="10.578717"
           inkscape:label="Loch 4" />
        <path
           style="opacity:1;fill:#b01d23;fill-opacity:1;stroke-width:0.59316891"
           d="m 36.905354,54.299165 c 1.436493,-0.82936 10.679345,4.121609 10.197399,6.604289 -0.481947,2.482681 -7.185578,6.353024 -9.576616,5.529062 C 35.1351,65.608553 35.468862,55.128524 36.905354,54.299165 Z"
           id="path4679"
           inkscape:connector-curvature="0"
           sodipodi:nodetypes="zzzz"
           inkscape:transform-center-x="-6.9269402"
           inkscape:transform-center-y="10.953717"
           inkscape:label="Loch 3" />
        <path
           inkscape:transform-center-y="0.375"
           inkscape:transform-center-x="-11.539772"
           sodipodi:nodetypes="zzzz"
           inkscape:connector-curvature="0"
           id="path4670"
           d="m 39.9375,49.797335 c 0,-1.658719 8.909091,-7.18778 10.818182,-5.529062 1.909091,1.658719 1.909091,9.399405 0,11.058123 C 48.846591,56.985114 39.9375,51.456053 39.9375,49.797335 Z"
           style="opacity:1;fill:#b01d23;fill-opacity:1;stroke-width:0.59316891"
           inkscape:label="Loch 2" />
        <path
           style="opacity:1;fill:#b01d23;fill-opacity:1;stroke-width:0.59316891"
           d="m 37.554874,44.920504 c -1.436493,-0.82936 -1.770255,-11.309388 0.620783,-12.133351 2.391038,-0.823961 9.094669,3.046381 9.576615,5.529061 0.481946,2.48268 -8.760906,7.433649 -10.197398,6.60429 z"
           id="path4683"
           inkscape:connector-curvature="0"
           sodipodi:nodetypes="zzzz"
           inkscape:transform-center-x="-7.576459"
           inkscape:transform-center-y="-10.578717"
           inkscape:label="Loch 1" />
      </g>
    </g>
  </g>
</svg>
