<?xml version="1.0" encoding="UTF-8" standalone="no"?>
<!-- Created with Inkscape (http://www.inkscape.org/) -->

<svg
   xmlns:dc="http://purl.org/dc/elements/1.1/"
   xmlns:cc="http://creativecommons.org/ns#"
   xmlns:rdf="http://www.w3.org/1999/02/22-rdf-syntax-ns#"
   xmlns:svg="http://www.w3.org/2000/svg"
   xmlns="http://www.w3.org/2000/svg"
   xmlns:sodipodi="http://sodipodi.sourceforge.net/DTD/sodipodi-0.dtd"
   xmlns:inkscape="http://www.inkscape.org/namespaces/inkscape"
   width="300"
   height="100"
   id="svg2"
   version="1.1"
   inkscape:version="0.48.4 r9939"
   sodipodi:docname="textlogo2.svg">
  <defs
     id="defs4" />
  <sodipodi:namedview
     id="base"
     pagecolor="#ffffff"
     bordercolor="#666666"
     borderopacity="1.0"
     inkscape:pageopacity="0.0"
     inkscape:pageshadow="2"
     inkscape:zoom="2.8553777"
     inkscape:cx="146.68122"
     inkscape:cy="49.212613"
     inkscape:document-units="px"
     inkscape:current-layer="g3806"
     showgrid="false"
     inkscape:window-width="1024"
     inkscape:window-height="551"
     inkscape:window-x="0"
     inkscape:window-y="0"
     inkscape:window-maximized="1" />
  <metadata
     id="metadata7">
    <rdf:RDF>
      <cc:Work
         rdf:about="">
        <dc:format>image/svg+xml</dc:format>
        <dc:type
           rdf:resource="http://purl.org/dc/dcmitype/StillImage" />
        <dc:title></dc:title>
      </cc:Work>
    </rdf:RDF>
  </metadata>
  <g
     inkscape:label="Ebene 1"
     inkscape:groupmode="layer"
     id="layer1"
     transform="translate(0,-952.36217)">
    <text
       xml:space="preserve"
       style="font-size:40px;font-style:normal;font-weight:normal;line-height:125%;letter-spacing:0px;word-spacing:0px;fill:#000000;fill-opacity:1;stroke:none;font-family:Sans"
       x="33.927326"
       y="51.936287"
       id="text2985"
       sodipodi:linespacing="125%"
       transform="translate(0,952.36217)"><tspan
         sodipodi:role="line"
         id="tspan2987"
         x="33.927326"
         y="51.936287"
         style="font-style:normal;font-variant:normal;font-weight:normal;font-stretch:normal;letter-spacing:0px;font-family:Helvetica;-inkscape-font-specification:Helvetica" /></text>
    <g
       style="font-size:40px;font-style:normal;font-weight:normal;line-height:125%;letter-spacing:0px;word-spacing:0px;fill:#000000;fill-opacity:1;stroke:none;font-family:Sans"
       id="text3773">
      <g
         id="g3806"
         transform="matrix(0.69462651,0,0,0.69462651,4.7973342,300.67997)">
        <path
           inkscape:connector-curvature="0"
           id="path3782"
           style="font-variant:normal;font-weight:500;font-stretch:normal;fill:#b01d23;fill-opacity:1;stroke:#b01d23;stroke-width:0.5;stroke-linecap:round;stroke-linejoin:round;stroke-miterlimit:4;stroke-opacity:1;stroke-dasharray:none;font-family:Frutiger 45 Light;-inkscape-font-specification:Frutiger 45 Light"
           d="m 129.59084,1030.1281 0,-40.76053 4.02933,0 0,37.25683 16.3509,0 0,3.5037 -20.38023,0" />
        <path
           inkscape:connector-curvature="0"
           id="path3784"
           style="font-variant:normal;font-weight:500;font-stretch:normal;fill:#b01d23;fill-opacity:1;stroke:#b01d23;stroke-width:0.5;stroke-linecap:round;stroke-linejoin:round;stroke-miterlimit:4;stroke-opacity:1;stroke-dasharray:none;font-family:Frutiger 45 Light;-inkscape-font-specification:Frutiger 45 Light"
           d="m 153.4229,1030.1281 0,-29.7821 3.67895,0 0,29.7821 -3.67895,0 m 3.67895,-42.62921 0,4.90527 -3.67895,0 0,-4.90527 3.67895,0" />
        <path
           inkscape:connector-curvature="0"
           id="path3786"
           style="font-variant:normal;font-weight:500;font-stretch:normal;fill:#b01d23;fill-opacity:1;stroke:#b01d23;stroke-width:0.5;stroke-linecap:round;stroke-linejoin:round;stroke-miterlimit:4;stroke-opacity:1;stroke-dasharray:none;font-family:Frutiger 45 Light;-inkscape-font-specification:Frutiger 45 Light"
           d="m 188.01717,1000.346 0,42.0453 -3.67895,0 0,-17.3436 c -0.97329,1.9854 -2.19961,3.4453 -3.67895,4.3797 -1.47939,0.9343 -3.38699,1.4015 -5.72282,1.4015 -3.93202,0 -6.96861,-1.4405 -9.10979,-4.3213 -2.10226,-2.9198 -3.15339,-6.6767 -3.15339,-11.2705 0,-4.8274 0.93433,-8.5648 2.80301,-11.2121 2.06332,-2.9198 5.21671,-4.37969 9.46017,-4.37972 2.6862,3e-5 4.92472,0.77862 6.71555,2.33582 0.6618,0.584 1.51827,1.6546 2.56943,3.2118 l 0.11679,-4.8469 3.67895,0 m -21.31457,14.8911 c -1e-5,3.5037 0.58395,6.3068 1.75188,8.4091 1.47936,2.6862 3.83467,4.0293 7.06593,4.0293 2.95872,0 5.23616,-1.3821 6.83234,-4.1461 1.32362,-2.2969 1.98545,-5.0611 1.98547,-8.2923 -2e-5,-3.2312 -0.64238,-5.9759 -1.92707,-8.2339 -1.59618,-2.803 -3.89309,-4.2045 -6.89074,-4.2045 -3.1534,0 -5.48924,1.3431 -7.00753,4.0293 -1.20686,2.1412 -1.81029,4.9443 -1.81028,8.4091" />
        <path
           inkscape:connector-curvature="0"
           id="path3788"
           style="font-variant:normal;font-weight:500;font-stretch:normal;fill:#b01d23;fill-opacity:1;stroke:#b01d23;stroke-width:0.5;stroke-linecap:round;stroke-linejoin:round;stroke-miterlimit:4;stroke-opacity:1;stroke-dasharray:none;font-family:Frutiger 45 Light;-inkscape-font-specification:Frutiger 45 Light"
           d="m 218.17244,1000.346 0,22.7746 c -3e-5,1.1679 -3e-5,2.2969 0,3.387 0.0389,1.0899 0.11676,2.2968 0.23358,3.6205 l -3.56216,0 0,-5.314 c -0.89543,1.7907 -1.90763,3.1338 -3.0366,4.0293 -1.67404,1.3236 -3.91255,1.9855 -6.71555,1.9855 -3.46485,0 -6.0732,-1.0901 -7.82508,-3.2702 -1.55723,-1.9466 -2.33584,-4.6717 -2.33584,-8.1755 l 0,-19.0372 3.67896,0 0,18.1029 c -1e-5,2.9976 0.54502,5.2946 1.63509,6.8907 1.12898,1.5572 2.93925,2.3359 5.43083,2.3359 3.03658,0 5.33349,-1.1875 6.89074,-3.5622 1.28469,-1.9854 1.92705,-4.4187 1.92707,-7.2995 l 0,-16.4678 3.67896,0" />
        <path
           inkscape:connector-curvature="0"
           id="path3790"
           style="font-variant:normal;font-weight:500;font-stretch:normal;fill:#b01d23;fill-opacity:1;stroke:#b01d23;stroke-width:0.5;stroke-linecap:round;stroke-linejoin:round;stroke-miterlimit:4;stroke-opacity:1;stroke-dasharray:none;font-family:Frutiger 45 Light;-inkscape-font-specification:Frutiger 45 Light"
           d="m 225.43643,1030.1281 0,-29.7821 3.67895,0 0,29.7821 -3.67895,0 m 3.67895,-42.62921 0,4.90527 -3.67895,0 0,-4.90527 3.67895,0" />
        <path
           inkscape:connector-curvature="0"
           id="path3792"
           style="font-variant:normal;font-weight:500;font-stretch:normal;fill:#b01d23;fill-opacity:1;stroke:#b01d23;stroke-width:0.5;stroke-linecap:round;stroke-linejoin:round;stroke-miterlimit:4;stroke-opacity:1;stroke-dasharray:none;font-family:Frutiger 45 Light;-inkscape-font-specification:Frutiger 45 Light"
           d="m 260.0307,986.33097 0,43.79713 -3.67895,0 0,-4.7301 c -1.05114,1.9075 -2.33586,3.2896 -3.85414,4.1462 -1.47938,0.8563 -3.32859,1.2847 -5.54763,1.2847 -3.93201,0 -6.96861,-1.4405 -9.10979,-4.3213 -2.10226,-2.9198 -3.15339,-6.6767 -3.15339,-11.2705 0,-4.8274 0.93434,-8.5648 2.80301,-11.2121 2.06333,-2.9198 5.21671,-4.37969 9.46017,-4.37972 2.53048,3e-5 4.73007,0.75922 6.59876,2.27742 1.36255,1.129 2.25796,2.2775 2.68622,3.4454 l 0.11679,-19.03713 3.67895,0 m -21.31457,28.90613 c 0,3.5037 0.58396,6.3068 1.75188,8.4091 1.47937,2.6862 3.83467,4.0293 7.06593,4.0293 2.95873,0 5.23616,-1.3821 6.83234,-4.1461 1.32362,-2.2969 1.98546,-5.0611 1.98547,-8.2923 -10e-6,-3.2312 -0.64237,-5.9759 -1.92707,-8.2339 -1.59619,-2.803 -3.89309,-4.2045 -6.89074,-4.2045 -3.1534,0 -5.48923,1.3431 -7.00753,4.0293 -1.20686,2.1412 -1.81028,4.9443 -1.81028,8.4091" />
        <path
           inkscape:connector-curvature="0"
           id="path3794"
           style="font-variant:normal;font-weight:500;font-stretch:normal;fill:#ffffff;fill-opacity:1;stroke:#ffffff;stroke-width:2;stroke-linecap:round;stroke-linejoin:round;stroke-miterlimit:4;stroke-opacity:1;stroke-dasharray:none;font-family:Frutiger 45 Light;-inkscape-font-specification:Frutiger 45 Light"
           d="m 269.3531,1030.1281 0,-40.76053 19.97146,0 0,3.50376 -15.94213,0 0,14.54067 15.12459,0 0,3.5038 -15.12459,0 0,15.7086 16.64289,0 0,3.5037 -20.67222,0" />
        <path
           inkscape:connector-curvature="0"
           id="path3796"
           style="font-variant:normal;font-weight:500;font-stretch:normal;fill:#ffffff;fill-opacity:1;stroke:#ffffff;stroke-width:2;stroke-linecap:round;stroke-linejoin:round;stroke-miterlimit:4;stroke-opacity:1;stroke-dasharray:none;font-family:Frutiger 45 Light;-inkscape-font-specification:Frutiger 45 Light"
           d="m 296.14238,1030.1281 0,-23.1249 0,-2.1023 0,-0.6423 c -2e-5,-1.3236 -0.0778,-2.6278 -0.23359,-3.9126 l 3.67895,0 0,5.7229 c 0.81754,-1.8687 1.81027,-3.3481 2.97821,-4.4381 1.40149,-1.3237 2.99764,-1.98549 4.78848,-1.98552 0.38928,3e-5 0.83699,0.039 1.34311,0.11679 0.54501,0.078 0.95378,0.15576 1.22631,0.23359 l 0,3.85414 c -0.77864,-0.2336 -1.67404,-0.3503 -2.68622,-0.3504 -2.64731,10e-5 -4.6133,1.3042 -5.898,3.9126 -1.01221,2.0633 -1.51832,4.7301 -1.5183,8.0003 l 0,14.7158 -3.67895,0" />
        <path
           inkscape:connector-curvature="0"
           id="path3798"
           style="font-variant:normal;font-weight:500;font-stretch:normal;fill:#ffffff;fill-opacity:1;stroke:#ffffff;stroke-width:2;stroke-linecap:round;stroke-linejoin:round;stroke-miterlimit:4;stroke-opacity:1;stroke-dasharray:none;font-family:Frutiger 45 Light;-inkscape-font-specification:Frutiger 45 Light"
           d="m 320.15678,1030.1281 0,-26.6287 -6.01479,0 0,-3.1534 6.01479,0 0,-2.16062 c 0,-4.12662 0.35038,-7.00749 1.05113,-8.64262 1.12899,-2.60832 3.40644,-3.9125 6.83235,-3.91254 0.70073,4e-5 1.36255,0.039 1.98546,0.11679 0.62289,0.078 1.10951,0.23363 1.45991,0.46717 l -0.23359,3.21178 c -0.77862,-0.42819 -1.7519,-0.64231 -2.9198,-0.64235 -1.90761,4e-5 -3.19233,0.79811 -3.85415,2.39424 -0.42824,1.05117 -0.64237,2.70572 -0.64235,4.96366 l 0,1.63509 0,2.5694 6.71555,0 0,3.1534 -6.71555,0 0,26.6287 -3.67896,0" />
        <path
           inkscape:connector-curvature="0"
           id="path3800"
           style="font-variant:normal;font-weight:500;font-stretch:normal;fill:#ffffff;fill-opacity:1;stroke:#ffffff;stroke-width:2;stroke-linecap:round;stroke-linejoin:round;stroke-miterlimit:4;stroke-opacity:1;stroke-dasharray:none;font-family:Frutiger 45 Light;-inkscape-font-specification:Frutiger 45 Light"
           d="m 358.39079,1000.346 0,22.7746 c -3e-5,1.1679 -3e-5,2.2969 0,3.387 0.0388,1.0899 0.11679,2.2968 0.23358,3.6205 l -3.56216,0 0,-5.314 c -0.89543,1.7907 -1.90763,3.1338 -3.0366,4.0293 -1.67404,1.3236 -3.91255,1.9855 -6.71555,1.9855 -3.46484,0 -6.07321,-1.0901 -7.82507,-3.2702 -1.55724,-1.9466 -2.33586,-4.6717 -2.33585,-8.1755 l 0,-19.0372 3.67896,0 0,18.1029 c -2e-5,2.9976 0.54501,5.2946 1.63509,6.8907 1.12897,1.5572 2.93925,2.3359 5.43083,2.3359 3.03657,0 5.33349,-1.1875 6.89074,-3.5622 1.28469,-1.9854 1.92704,-4.4187 1.92707,-7.2995 l 0,-16.4678 3.67896,0" />
        <path
           inkscape:connector-curvature="0"
           id="path3802"
           style="font-variant:normal;font-weight:500;font-stretch:normal;fill:#ffffff;fill-opacity:1;stroke:#ffffff;stroke-width:2;stroke-linecap:round;stroke-linejoin:round;stroke-miterlimit:4;stroke-opacity:1;stroke-dasharray:none;font-family:Frutiger 45 Light;-inkscape-font-specification:Frutiger 45 Light"
           d="m 365.65477,1030.1281 0,-23.1249 0,-2.1023 0,-0.6423 c 0,-1.3236 -0.0778,-2.6278 -0.23358,-3.9126 l 3.67895,0 0,5.7229 c 0.81755,-1.8687 1.81028,-3.3481 2.9782,-4.4381 1.40149,-1.3237 2.99766,-1.98549 4.78848,-1.98552 0.3893,3e-5 0.83699,0.039 1.34311,0.11679 0.54501,0.078 0.95379,0.15576 1.22632,0.23359 l 0,3.85414 c -0.77862,-0.2336 -1.67404,-0.3503 -2.68622,-0.3504 -2.6473,10e-5 -4.61331,1.3042 -5.898,3.9126 -1.01221,2.0633 -1.5183,4.7301 -1.5183,8.0003 l 0,14.7158 -3.67896,0" />
        <path
           inkscape:connector-curvature="0"
           id="path3804"
           style="font-variant:normal;font-weight:500;font-stretch:normal;fill:#ffffff;fill-opacity:1;stroke:#ffffff;stroke-width:2;stroke-linecap:round;stroke-linejoin:round;stroke-miterlimit:4;stroke-opacity:1;stroke-dasharray:none;font-family:Frutiger 45 Light;-inkscape-font-specification:Frutiger 45 Light"
           d="m 400.0053,1000.346 0,3.1534 -6.77394,0 0,19.2708 c -2e-5,1.5183 0.29196,2.7252 0.87594,3.6206 0.62288,0.8563 1.65453,1.2847 3.09499,1.2847 0.70074,0 1.26523,-0.039 1.69349,-0.1168 0.46715,-0.1168 1.03164,-0.3116 1.69348,-0.584 l 0.23359,3.0366 c -0.46718,0.1946 -1.12902,0.3698 -1.98547,0.5256 -0.85649,0.1946 -1.6935,0.292 -2.51103,0.292 -2.95875,0 -4.90529,-0.9733 -5.83961,-2.9198 -0.6229,-1.2847 -0.93435,-3.6206 -0.93434,-7.0076 l 0,-17.4021 -5.83961,0 0,-3.1534 5.83961,0 0,-7.18269 3.67896,-1.28471 0,8.4674 6.77394,0" />
        <g
           id="g3843"
           transform="matrix(0,2.3953408,-2.3953408,0,2449.9181,269.20762)">
          <path
             sodipodi:nodetypes="ssssss"
             inkscape:connector-curvature="0"
             id="path3820"
             d="m 238.22787,34.432693 c 0.0494,7.000779 -5.67539,12.676346 -12.67634,12.676346 -7.00095,0 -12.67635,-5.675393 -12.67635,-12.676346 0,-7.000952 5.6772,-12.517666 12.67635,-12.676345 7.01752,-0.159095 5.59053,-10.040678 4.81884,-12.955055 -0.12539,-0.473542 7.77795,14.352193 7.8575,25.6314 z"
             style="fill:#b01d23;fill-opacity:1;stroke:none"
             transform="matrix(1.4763792,0,0,1.4763792,-17.875279,943.36487)" />
          <g
             id="g3821"
             transform="matrix(1.1318767,0,0,1.1318767,-41.510887,-131.09399)">
            <g
               transform="translate(-0.59533688,0)"
               id="g3829">
              <path
                 sodipodi:nodetypes="ccccccc"
                 style="fill:#ffffff;fill-opacity:1;stroke:none"
                 d="m 301.79977,993.75326 c 0.0257,5.47479 3.44955,10.83944 8.48898,13.04054 5.70489,2.4742 12.78367,0.082 16.32774,-4.8947 3.03729,-4.13144 2.89386,-9.90589 0.68634,-14.37708 -1.3001,-3.01724 -4.13856,-5.0079 -7.13435,-6.12296 -2.52914,-1.08784 -5.42005,-1.4101 -8.07356,-0.57796 -5.56674,1.71014 -10.19681,6.97557 -10.29515,12.93216 z"
                 id="path3819"
                 inkscape:connector-curvature="0" />
              <path
                 inkscape:connector-curvature="0"
                 id="rect3811"
                 d="m 301.25907,993.74084 c 0.0267,5.693 3.58704,11.27146 8.82733,13.56026 5.93227,2.5729 13.29319,0.085 16.97851,-5.0898 3.15835,-4.29606 3.0092,-10.30066 0.7137,-14.95006 -1.35192,-3.1375 -4.30351,-5.2075 -7.41871,-6.367 -2.62994,-1.1312 -5.63608,-1.4663 -8.39535,-0.601 -5.78861,1.7783 -10.60322,7.2536 -10.70548,13.4476 z m 3.08017,0.4508 c -0.12624,-4.4131 2.79981,-8.5787 6.79892,-10.3111 5.03563,-2.4935 11.59817,0.097 14.06738,5.0147 1.35301,2.9557 1.69869,6.4887 0.58223,9.5786 -2.02556,5.03186 -8.09808,7.69516 -13.25977,6.40446 -4.81448,-1.0754 -8.0678,-5.90676 -8.18876,-10.68666 z m 2.87358,2.5355 c 0.0436,0.4324 0.208,0.8406 0.41319,1.2208 0.58365,1.0046 1.44427,2.81006 2.83602,1.7655 0.76532,-1.0396 2.53071,-2.8474 1.35227,-4.0756 -1.4794,-0.2302 -4.06245,-0.8431 -4.60148,1.0893 z m 0.2066,-4.8269 c 0.0999,0.5636 0.64196,0.8837 1.16445,0.9767 1.24262,-0.044 3.64124,0.8017 3.869,-1.033 -0.44679,-1.3072 -1.15236,-2.9273 -2.49795,-3.5497 -1.67764,-0.038 -2.4357,2.1809 -2.5355,3.606 z m 5.25883,-5.4091 c 0.29052,1.0294 0.90632,1.9281 1.55887,2.7609 0.4971,1.1867 1.95546,1.7332 2.47916,0.2254 0.78969,-1.1411 2.17489,-3.1693 0.24416,-4.0005 -1.40612,-0.1947 -3.49556,-0.51 -4.28219,1.0142 z m 0.22538,15.11916 c -0.008,0.5419 0.55786,0.7949 1.0142,0.8639 1.34249,0.076 3.15929,0.629 4.05682,-0.7137 -0.0916,-1.3593 -1.02095,-2.92886 -2.1411,-3.77496 -1.69806,-0.1255 -2.53787,2.22016 -2.92992,3.62476 z m 5.76593,-4.84556 c 0.0778,0.4476 0.27348,0.8716 0.5071,1.2583 0.64968,0.9048 1.40607,2.76686 2.76089,1.6528 1.08164,-0.8671 2.2119,-2.7512 1.14568,-4.0005 -1.36563,-0.3283 -4.05294,-0.8262 -4.41367,1.0894 z m 0.0188,-4.8269 c -0.0439,0.417 0.23479,0.8034 0.63858,0.9203 1.27289,0.1898 2.84588,0.4619 3.88778,-0.4883 0.72699,-1.2881 -0.10272,-3.2343 -1.29593,-4.0005 -1.82852,-0.3946 -3.02912,2.0137 -3.23043,3.5685 z"
                 style="fill:#b01d23;fill-opacity:1;stroke:none" />
            </g>
          </g>
        </g>
      </g>
    </g>
  </g>
</svg>
