<?xml version="1.0" encoding="UTF-8" standalone="no"?>
<!-- Created with Inkscape (http://www.inkscape.org/) -->

<svg
   xmlns:dc="http://purl.org/dc/elements/1.1/"
   xmlns:cc="http://creativecommons.org/ns#"
   xmlns:rdf="http://www.w3.org/1999/02/22-rdf-syntax-ns#"
   xmlns:svg="http://www.w3.org/2000/svg"
   xmlns="http://www.w3.org/2000/svg"
   xmlns:sodipodi="http://sodipodi.sourceforge.net/DTD/sodipodi-0.dtd"
   xmlns:inkscape="http://www.inkscape.org/namespaces/inkscape"
   width="296.74713"
   height="72.279617"
   id="svg2"
   version="1.1"
   inkscape:version="0.92.4 5da689c313, 2019-01-14"
   sodipodi:docname="textlogo.svg">
  <defs
     id="defs4" />
  <sodipodi:namedview
     id="base"
     pagecolor="#ffffff"
     bordercolor="#666666"
     borderopacity="1.0"
     inkscape:pageopacity="0.0"
     inkscape:pageshadow="2"
     inkscape:zoom="2.8284271"
     inkscape:cx="164.40932"
     inkscape:cy="19.051253"
     inkscape:document-units="px"
     inkscape:current-layer="layer1"
     showgrid="true"
     inkscape:window-width="1366"
     inkscape:window-height="716"
     inkscape:window-x="0"
     inkscape:window-y="26"
     inkscape:window-maximized="1"
     inkscape:snap-grids="false"
     inkscape:pagecheckerboard="true"
     fit-margin-top="5"
     fit-margin-left="5"
     fit-margin-right="5"
     fit-margin-bottom="5">
    <inkscape:grid
       type="xygrid"
       id="grid46"
       originx="-16.218208"
       originy="-4.218275" />
  </sodipodi:namedview>
  <metadata
     id="metadata7">
    <rdf:RDF>
      <cc:Work
         rdf:about="">
        <dc:format>image/svg+xml</dc:format>
        <dc:type
           rdf:resource="http://purl.org/dc/dcmitype/StillImage" />
        <dc:title />
      </cc:Work>
    </rdf:RDF>
  </metadata>
  <g
     inkscape:label="Ebene 1"
     inkscape:groupmode="layer"
     id="layer1"
     transform="translate(-16.218208,-975.86428)"
     style="display:inline">
    <g
       style="font-style:normal;font-weight:normal;font-size:40px;line-height:125%;font-family:Sans;letter-spacing:0px;word-spacing:0px;display:none;fill:#000000;fill-opacity:1;stroke:none"
       inkscape:label="Neuer Text"
       id="g52"
       transform="matrix(0,1.6638672,-1.6638672,0,1719.3497,414.51437)">
      <text
         xml:space="preserve"
         style="font-style:normal;font-variant:normal;font-weight:600;font-stretch:normal;font-size:24.04038048px;line-height:1.25;font-family:'Muli SemiBold';-inkscape-font-specification:'Muli SemiBold, Semi-Bold';font-variant-ligatures:normal;font-variant-caps:normal;font-variant-numeric:normal;font-feature-settings:normal;text-align:start;letter-spacing:0px;word-spacing:0px;writing-mode:lr-tb;text-anchor:start;fill:#000000;fill-opacity:1;stroke:none;stroke-width:0.60100949"
         x="-913.48035"
         y="361.79657"
         id="text44"
         transform="rotate(-90)"
         inkscape:label="Erfurt"><tspan
           sodipodi:role="line"
           id="tspan42"
           x="-913.48035"
           y="361.79657"
           style="font-style:normal;font-variant:normal;font-weight:600;font-stretch:normal;font-size:24.04038048px;font-family:'Muli SemiBold';-inkscape-font-specification:'Muli SemiBold, Semi-Bold';font-variant-ligatures:normal;font-variant-caps:normal;font-variant-numeric:normal;font-feature-settings:normal;text-align:start;writing-mode:lr-tb;text-anchor:start;stroke-width:0.60100949">Erfurt</tspan></text>
      <text
         xml:space="preserve"
         style="font-style:normal;font-variant:normal;font-weight:normal;font-stretch:normal;font-size:24.04038048px;line-height:1.25;font-family:Muli;-inkscape-font-specification:'Muli, Normal';font-variant-ligatures:normal;font-variant-caps:normal;font-variant-numeric:normal;font-feature-settings:normal;text-align:start;letter-spacing:0px;word-spacing:0px;writing-mode:lr-tb;text-anchor:start;fill:#b01d23;fill-opacity:1;stroke:none;stroke-width:0.60100949"
         x="-979.0459"
         y="361.75223"
         id="text36"
         transform="rotate(-90)"
         inkscape:label="Liquid"><tspan
           sodipodi:role="line"
           x="-979.0459"
           y="361.75223"
           style="font-style:normal;font-variant:normal;font-weight:normal;font-stretch:normal;font-size:24.04038048px;font-family:Muli;-inkscape-font-specification:'Muli, Normal';font-variant-ligatures:normal;font-variant-caps:normal;font-variant-numeric:normal;font-feature-settings:normal;text-align:start;writing-mode:lr-tb;text-anchor:start;fill:#b01d23;fill-opacity:1;stroke-width:0.60100949"
           id="tspan38">Liquid</tspan></text>
    </g>
    <g
       inkscape:label="Alter Text"
       id="g3867"
       transform="matrix(0.69462651,0,0,0.69462651,83.728516,300.67997)"
       style="font-style:normal;font-weight:normal;font-size:40px;line-height:125%;font-family:Sans;letter-spacing:0px;word-spacing:0px;display:inline;fill:#000000;fill-opacity:1;stroke:none">
      <path
         inkscape:label="t"
         d="m 286.37419,1000.346 v 3.1534 h -6.77394 v 19.2708 c -2e-5,1.5183 0.29196,2.7252 0.87594,3.6206 0.62288,0.8563 1.65453,1.2847 3.09499,1.2847 0.70074,0 1.26523,-0.039 1.69349,-0.1168 0.46715,-0.1168 1.03164,-0.3116 1.69348,-0.584 l 0.23359,3.0366 c -0.46718,0.1946 -1.12902,0.3698 -1.98547,0.5256 -0.85649,0.1946 -1.6935,0.292 -2.51103,0.292 -2.95875,0 -4.90529,-0.9733 -5.83961,-2.9198 -0.6229,-1.2847 -0.93435,-3.6206 -0.93434,-7.0076 v -17.4021 h -5.83961 v -3.1534 h 5.83961 v -7.18269 l 3.67896,-1.28471 v 8.4674 h 6.77394"
         style="font-variant:normal;font-weight:500;font-stretch:normal;font-family:'Frutiger 45 Light';-inkscape-font-specification:'Frutiger 45 Light';display:inline;fill:#000000;fill-opacity:1;stroke:#000000;stroke-width:2;stroke-linecap:round;stroke-linejoin:round;stroke-miterlimit:4;stroke-dasharray:none;stroke-opacity:1"
         id="path3804"
         inkscape:connector-curvature="0" />
      <path
         inkscape:label="r"
         d="m 252.02366,1030.1281 v -23.1249 -2.1023 -0.6423 c 0,-1.3236 -0.0778,-2.6278 -0.23358,-3.9126 h 3.67895 v 5.7229 c 0.81755,-1.8687 1.81028,-3.3481 2.9782,-4.4381 1.40149,-1.3237 2.99766,-1.98549 4.78848,-1.98552 0.3893,3e-5 0.83699,0.039 1.34311,0.11679 0.54501,0.078 0.95379,0.15576 1.22632,0.23359 v 3.85414 c -0.77862,-0.2336 -1.67404,-0.3503 -2.68622,-0.3504 -2.6473,10e-5 -4.61331,1.3042 -5.898,3.9126 -1.01221,2.0633 -1.5183,4.7301 -1.5183,8.0003 v 14.7158 h -3.67896"
         style="font-variant:normal;font-weight:500;font-stretch:normal;font-family:'Frutiger 45 Light';-inkscape-font-specification:'Frutiger 45 Light';display:inline;fill:#000000;fill-opacity:1;stroke:#000000;stroke-width:2;stroke-linecap:round;stroke-linejoin:round;stroke-miterlimit:4;stroke-dasharray:none;stroke-opacity:1"
         id="path3802"
         inkscape:connector-curvature="0" />
      <path
         inkscape:label="u"
         d="m 244.75968,1000.346 v 22.7746 c -3e-5,1.1679 -3e-5,2.2969 0,3.387 0.0388,1.0899 0.11679,2.2968 0.23358,3.6205 h -3.56216 v -5.314 c -0.89543,1.7907 -1.90763,3.1338 -3.0366,4.0293 -1.67404,1.3236 -3.91255,1.9855 -6.71555,1.9855 -3.46484,0 -6.07321,-1.0901 -7.82507,-3.2702 -1.55724,-1.9466 -2.33586,-4.6717 -2.33585,-8.1755 v -19.0372 h 3.67896 v 18.1029 c -2e-5,2.9976 0.54501,5.2946 1.63509,6.8907 1.12897,1.5572 2.93925,2.3359 5.43083,2.3359 3.03657,0 5.33349,-1.1875 6.89074,-3.5622 1.28469,-1.9854 1.92704,-4.4187 1.92707,-7.2995 v -16.4678 h 3.67896"
         style="font-variant:normal;font-weight:500;font-stretch:normal;font-family:'Frutiger 45 Light';-inkscape-font-specification:'Frutiger 45 Light';fill:#000000;fill-opacity:1;stroke:#000000;stroke-width:2;stroke-linecap:round;stroke-linejoin:round;stroke-miterlimit:4;stroke-dasharray:none;stroke-opacity:1"
         id="path3800"
         inkscape:connector-curvature="0" />
      <path
         inkscape:label="f"
         d="m 206.52567,1030.1281 v -26.6287 h -6.01479 v -3.1534 h 6.01479 v -2.16062 c 0,-4.12662 0.35038,-7.00749 1.05113,-8.64262 1.12899,-2.60832 3.40644,-3.9125 6.83235,-3.91254 0.70073,4e-5 1.36255,0.039 1.98546,0.11679 0.62289,0.078 1.10951,0.23363 1.45991,0.46717 l -0.23359,3.21178 c -0.77862,-0.42819 -1.7519,-0.64231 -2.9198,-0.64235 -1.90761,4e-5 -3.19233,0.79811 -3.85415,2.39424 -0.42824,1.05117 -0.64237,2.70572 -0.64235,4.96366 v 1.63509 2.5694 h 6.71555 v 3.1534 h -6.71555 v 26.6287 h -3.67896"
         style="font-variant:normal;font-weight:500;font-stretch:normal;font-family:'Frutiger 45 Light';-inkscape-font-specification:'Frutiger 45 Light';fill:#000000;fill-opacity:1;stroke:#000000;stroke-width:2;stroke-linecap:round;stroke-linejoin:round;stroke-miterlimit:4;stroke-dasharray:none;stroke-opacity:1"
         id="path3798"
         inkscape:connector-curvature="0" />
      <path
         inkscape:label="r"
         d="m 182.51127,1030.1281 v -23.1249 -2.1023 -0.6423 c -2e-5,-1.3236 -0.0778,-2.6278 -0.23359,-3.9126 h 3.67895 v 5.7229 c 0.81754,-1.8687 1.81027,-3.3481 2.97821,-4.4381 1.40149,-1.3237 2.99764,-1.98549 4.78848,-1.98552 0.38928,3e-5 0.83699,0.039 1.34311,0.11679 0.54501,0.078 0.95378,0.15576 1.22631,0.23359 v 3.85414 c -0.77864,-0.2336 -1.67404,-0.3503 -2.68622,-0.3504 -2.64731,10e-5 -4.6133,1.3042 -5.898,3.9126 -1.01221,2.0633 -1.51832,4.7301 -1.5183,8.0003 v 14.7158 h -3.67895"
         style="font-variant:normal;font-weight:500;font-stretch:normal;font-family:'Frutiger 45 Light';-inkscape-font-specification:'Frutiger 45 Light';fill:#000000;fill-opacity:1;stroke:#000000;stroke-width:2;stroke-linecap:round;stroke-linejoin:round;stroke-miterlimit:4;stroke-dasharray:none;stroke-opacity:1"
         id="path3796"
         inkscape:connector-curvature="0" />
      <path
         inkscape:label="E"
         d="m 155.72199,1030.1281 v -40.76053 h 19.97146 v 3.50376 h -15.94213 v 14.54067 h 15.12459 v 3.5038 h -15.12459 v 15.7086 h 16.64289 v 3.5037 h -20.67222"
         style="font-variant:normal;font-weight:500;font-stretch:normal;font-family:'Frutiger 45 Light';-inkscape-font-specification:'Frutiger 45 Light';fill:#000000;fill-opacity:1;stroke:#000000;stroke-width:2;stroke-linecap:round;stroke-linejoin:round;stroke-miterlimit:4;stroke-dasharray:none;stroke-opacity:1"
         id="path3794"
         inkscape:connector-curvature="0" />
      <path
         inkscape:label="d"
         d="m 146.39959,986.33097 v 43.79713 h -3.67895 v -4.7301 c -1.05114,1.9075 -2.33586,3.2896 -3.85414,4.1462 -1.47938,0.8563 -3.32859,1.2847 -5.54763,1.2847 -3.93201,0 -6.96861,-1.4405 -9.10979,-4.3213 -2.10226,-2.9198 -3.15339,-6.6767 -3.15339,-11.2705 0,-4.8274 0.93434,-8.5648 2.80301,-11.2121 2.06333,-2.9198 5.21671,-4.37969 9.46017,-4.37972 2.53048,3e-5 4.73007,0.75922 6.59876,2.27742 1.36255,1.129 2.25796,2.2775 2.68622,3.4454 l 0.11679,-19.03713 h 3.67895 m -21.31457,28.90613 c 0,3.5037 0.58396,6.3068 1.75188,8.4091 1.47937,2.6862 3.83467,4.0293 7.06593,4.0293 2.95873,0 5.23616,-1.3821 6.83234,-4.1461 1.32362,-2.2969 1.98546,-5.0611 1.98547,-8.2923 -1e-5,-3.2312 -0.64237,-5.9759 -1.92707,-8.2339 -1.59619,-2.803 -3.89309,-4.2045 -6.89074,-4.2045 -3.1534,0 -5.48923,1.3431 -7.00753,4.0293 -1.20686,2.1412 -1.81028,4.9443 -1.81028,8.4091"
         style="font-variant:normal;font-weight:500;font-stretch:normal;font-family:'Frutiger 45 Light';-inkscape-font-specification:'Frutiger 45 Light';fill:#b01d23;fill-opacity:1;stroke:#b01d23;stroke-width:0.5;stroke-linecap:round;stroke-linejoin:round;stroke-miterlimit:4;stroke-dasharray:none;stroke-opacity:1"
         id="path3792"
         inkscape:connector-curvature="0" />
      <path
         inkscape:label="i"
         d="m 111.80532,1030.1281 v -29.7821 h 3.67895 v 29.7821 h -3.67895 m 3.67895,-42.62921 v 4.90527 h -3.67895 v -4.90527 h 3.67895"
         style="font-variant:normal;font-weight:500;font-stretch:normal;font-family:'Frutiger 45 Light';-inkscape-font-specification:'Frutiger 45 Light';fill:#b01d23;fill-opacity:1;stroke:#b01d23;stroke-width:0.5;stroke-linecap:round;stroke-linejoin:round;stroke-miterlimit:4;stroke-dasharray:none;stroke-opacity:1"
         id="path3790"
         inkscape:connector-curvature="0" />
      <path
         inkscape:label="u"
         d="m 104.54133,1000.346 v 22.7746 c -3e-5,1.1679 -3e-5,2.2969 0,3.387 0.0389,1.0899 0.11676,2.2968 0.23358,3.6205 h -3.56216 v -5.314 c -0.89543,1.7907 -1.90763,3.1338 -3.0366,4.0293 -1.67404,1.3236 -3.91255,1.9855 -6.715549,1.9855 -3.464846,0 -6.073202,-1.0901 -7.825076,-3.2702 -1.557234,-1.9466 -2.335848,-4.6717 -2.335844,-8.1755 v -19.0372 h 3.678954 v 18.1029 c -7e-6,2.9976 0.545022,5.2946 1.635091,6.8907 1.12898,1.5572 2.939257,2.3359 5.430834,2.3359 3.03658,0 5.33349,-1.1875 6.89074,-3.5622 1.28469,-1.9854 1.92705,-4.4187 1.92707,-7.2995 v -16.4678 h 3.67896"
         style="font-variant:normal;font-weight:500;font-stretch:normal;font-family:'Frutiger 45 Light';-inkscape-font-specification:'Frutiger 45 Light';fill:#b01d23;fill-opacity:1;stroke:#b01d23;stroke-width:0.5;stroke-linecap:round;stroke-linejoin:round;stroke-miterlimit:4;stroke-dasharray:none;stroke-opacity:1"
         id="path3788"
         inkscape:connector-curvature="0" />
      <path
         inkscape:label="q"
         d="m 74.386065,1000.346 v 42.0453 h -3.678954 v -17.3436 c -0.973293,1.9854 -2.199609,3.4453 -3.678954,4.3797 -1.479387,0.9343 -3.386991,1.4015 -5.722818,1.4015 -3.932015,0 -6.968609,-1.4405 -9.10979,-4.3213 -2.102263,-2.9198 -3.153392,-6.6767 -3.15339,-11.2705 -2e-6,-4.8274 0.934335,-8.5648 2.803013,-11.2121 2.063321,-2.9198 5.216707,-4.37969 9.460167,-4.37972 2.686203,3e-5 4.924718,0.77862 6.715551,2.33582 0.6618,0.584 1.518275,1.6546 2.569428,3.2118 l 0.116793,-4.8469 h 3.678954 m -21.314575,14.8911 c -6e-6,3.5037 0.583954,6.3068 1.751883,8.4091 1.479358,2.6862 3.834664,4.0293 7.065927,4.0293 2.958717,0 5.236163,-1.3821 6.832343,-4.1461 1.323622,-2.2969 1.985443,-5.0611 1.985468,-8.2923 -2.5e-5,-3.2312 -0.642381,-5.9759 -1.927072,-8.2339 -1.596179,-2.803 -3.893091,-4.2045 -6.890739,-4.2045 -3.1534,0 -5.489243,1.3431 -7.007531,4.0293 -1.20686,2.1412 -1.810285,4.9443 -1.810279,8.4091"
         style="font-variant:normal;font-weight:500;font-stretch:normal;font-family:'Frutiger 45 Light';-inkscape-font-specification:'Frutiger 45 Light';fill:#b01d23;fill-opacity:1;stroke:#b01d23;stroke-width:0.5;stroke-linecap:round;stroke-linejoin:round;stroke-miterlimit:4;stroke-dasharray:none;stroke-opacity:1"
         id="path3786"
         inkscape:connector-curvature="0" />
      <path
         inkscape:label="i"
         d="m 39.791787,1030.1281 v -29.7821 h 3.678954 v 29.7821 h -3.678954 m 3.678954,-42.62921 v 4.90527 h -3.678954 v -4.90527 h 3.678954"
         style="font-variant:normal;font-weight:500;font-stretch:normal;font-family:'Frutiger 45 Light';-inkscape-font-specification:'Frutiger 45 Light';fill:#b01d23;fill-opacity:1;stroke:#b01d23;stroke-width:0.5;stroke-linecap:round;stroke-linejoin:round;stroke-miterlimit:4;stroke-dasharray:none;stroke-opacity:1"
         id="path3784"
         inkscape:connector-curvature="0" />
      <path
         inkscape:label="L"
         d="m 15.959727,1030.1281 v -40.76053 h 4.029331 v 37.25683 h 16.350906 v 3.5037 H 15.959727"
         style="font-variant:normal;font-weight:500;font-stretch:normal;font-family:'Frutiger 45 Light';-inkscape-font-specification:'Frutiger 45 Light';fill:#b01d23;fill-opacity:1;stroke:#b01d23;stroke-width:0.5;stroke-linecap:round;stroke-linejoin:round;stroke-miterlimit:4;stroke-dasharray:none;stroke-opacity:1"
         id="path3782"
         inkscape:connector-curvature="0" />
    </g>
    <g
       transform="translate(18.248345,9.6578772)"
       id="layer1-3"
       inkscape:label="Logo"
       style="display:inline">
      <path
         sodipodi:insensitive="true"
         inkscape:label="Sprechblase"
         sodipodi:nodetypes="ssssss"
         inkscape:connector-curvature="0"
         id="path3820-5"
         d="m 34.074375,1033.5011 c -17.197406,0.1214 -31.1394301,-13.9415 -31.1394301,-31.1394 0,-17.19775 13.9415961,-31.13936 31.1394301,-31.13936 17.197832,0 30.749634,13.94604 31.139428,31.13936 0.390816,17.2386 24.664915,13.7332 31.824076,11.8375 1.163256,-0.308 -35.256144,19.1065 -62.963504,19.3019 z"
         style="font-style:normal;font-weight:normal;font-size:40px;line-height:125%;font-family:Sans;letter-spacing:0px;word-spacing:0px;fill:#b01d23;fill-opacity:1;stroke:none;stroke-width:2.45649886" />
      <g
         style="display:inline"
         transform="translate(-0.4267767,952.68539)"
         inkscape:label="Rad"
         id="layer3">
        <ellipse
           ry="21.765165"
           rx="23.002602"
           inkscape:label="Hintergrund"
           cy="49.5"
           cx="34.5"
           id="path4533"
           style="display:inline;fill:#ffffff;fill-opacity:1;stroke-width:1.04071307" />
        <g
           style="display:inline"
           inkscape:label="Speichen"
           id="g4691">
          <path
             inkscape:label="Loch 5"
             style="opacity:1;fill:#b01d23;fill-opacity:1;stroke-width:0.59316891"
             d="m 29.107956,49.047334 c 0,1.658719 -8.909091,7.18778 -10.818183,5.529062 -1.90909,-1.658719 -1.90909,-9.399406 1e-6,-11.058123 1.909091,-1.658718 10.818182,3.870342 10.818182,5.529061 z"
             id="path4681"
             inkscape:connector-curvature="0"
             sodipodi:nodetypes="zzzz"
             inkscape:transform-center-x="11.539772"
             inkscape:transform-center-y="-0.37499972" />
          <path
             inkscape:label="Loch 6"
             style="opacity:1;fill:#b01d23;fill-opacity:1;stroke-width:0.59316891"
             d="m 32.140102,44.545504 c -1.436493,0.829359 -10.679345,-4.121609 -10.197399,-6.60429 0.481948,-2.48268 7.185578,-6.353023 9.576615,-5.529061 2.391037,0.823963 2.057276,11.303992 0.620784,12.133351 z"
             id="path4677"
             inkscape:connector-curvature="0"
             sodipodi:nodetypes="zzzz"
             inkscape:transform-center-x="6.9269403"
             inkscape:transform-center-y="-10.953717" />
          <path
             inkscape:label="Loch 4"
             inkscape:transform-center-y="10.578717"
             inkscape:transform-center-x="7.5764592"
             sodipodi:nodetypes="zzzz"
             inkscape:connector-curvature="0"
             id="path4675"
             d="m 31.490582,53.924164 c 1.436493,0.82936 1.770255,11.309389 -0.620783,12.133352 -2.391038,0.823961 -9.094669,-3.046382 -9.576615,-5.529062 -0.481946,-2.48268 8.760906,-7.433649 10.197398,-6.60429 z"
             style="opacity:1;fill:#b01d23;fill-opacity:1;stroke-width:0.59316891" />
          <path
             inkscape:label="Loch 3"
             inkscape:transform-center-y="10.953717"
             inkscape:transform-center-x="-6.9269402"
             sodipodi:nodetypes="zzzz"
             inkscape:connector-curvature="0"
             id="path4679"
             d="m 36.905354,54.299165 c 1.436493,-0.82936 10.679345,4.121609 10.197399,6.604289 -0.481947,2.482681 -7.185578,6.353024 -9.576616,5.529062 C 35.1351,65.608553 35.468862,55.128524 36.905354,54.299165 Z"
             style="opacity:1;fill:#b01d23;fill-opacity:1;stroke-width:0.59316891" />
          <path
             inkscape:label="Loch 2"
             style="opacity:1;fill:#b01d23;fill-opacity:1;stroke-width:0.59316891"
             d="m 39.9375,49.797335 c 0,-1.658719 8.909091,-7.18778 10.818182,-5.529062 1.909091,1.658719 1.909091,9.399405 0,11.058123 C 48.846591,56.985114 39.9375,51.456053 39.9375,49.797335 Z"
             id="path4670"
             inkscape:connector-curvature="0"
             sodipodi:nodetypes="zzzz"
             inkscape:transform-center-x="-11.539772"
             inkscape:transform-center-y="0.375" />
          <path
             inkscape:label="Loch 1"
             inkscape:transform-center-y="-10.578717"
             inkscape:transform-center-x="-7.576459"
             sodipodi:nodetypes="zzzz"
             inkscape:connector-curvature="0"
             id="path4683"
             d="m 37.554874,44.920504 c -1.436493,-0.82936 -1.770255,-11.309388 0.620783,-12.133351 2.391038,-0.823961 9.094669,3.046381 9.576615,5.529061 0.481946,2.48268 -8.760906,7.433649 -10.197398,6.60429 z"
             style="opacity:1;fill:#b01d23;fill-opacity:1;stroke-width:0.59316891" />
        </g>
      </g>
    </g>
  </g>
</svg>
